<mxfile host="app.diagrams.net" modified="2020-10-27T19:09:07.778Z" agent="5.0 (Macintosh; Intel Mac OS X 10_14_6) AppleWebKit/605.1.15 (KHTML, like Gecko) Version/14.0 Safari/605.1.15" etag="WTJpSYIfOuMWWW4hhjsx" version="13.8.5" type="github">
  <diagram id="MueFba0LYNmBSieSauwc" name="Page-1">
    <mxGraphModel dx="823" dy="569" grid="1" gridSize="10" guides="1" tooltips="1" connect="1" arrows="1" fold="1" page="1" pageScale="1" pageWidth="850" pageHeight="1100" math="0" shadow="0">
      <root>
        <mxCell id="0" />
        <mxCell id="1" parent="0" />
        <mxCell id="P1GT1j-JjbiofY8g7O1u-1" value="InspectionAddress" style="swimlane;childLayout=stackLayout;horizontal=1;startSize=30;horizontalStack=0;rounded=1;fontSize=14;fontStyle=0;strokeWidth=2;resizeParent=0;resizeLast=1;shadow=0;dashed=0;align=center;" vertex="1" parent="1">
          <mxGeometry x="170" y="100" width="160" height="140" as="geometry" />
        </mxCell>
        <mxCell id="P1GT1j-JjbiofY8g7O1u-2" value="+ id: uuid&#xa;+ street: string&#xa;+ streetNo: string&#xa;+ city: string&#xa;+ staircases: string&#xa;+ createdAt&#xa;+ updatedAt" style="align=left;strokeColor=none;fillColor=none;spacingLeft=4;fontSize=12;verticalAlign=top;resizable=0;rotatable=0;part=1;" vertex="1" parent="P1GT1j-JjbiofY8g7O1u-1">
          <mxGeometry y="30" width="160" height="110" as="geometry" />
        </mxCell>
        <mxCell id="P1GT1j-JjbiofY8g7O1u-5" style="edgeStyle=orthogonalEdgeStyle;rounded=0;orthogonalLoop=1;jettySize=auto;html=1;entryX=1;entryY=0.25;entryDx=0;entryDy=0;" edge="1" parent="1" source="P1GT1j-JjbiofY8g7O1u-4" target="P1GT1j-JjbiofY8g7O1u-1">
          <mxGeometry relative="1" as="geometry" />
        </mxCell>
        <mxCell id="P1GT1j-JjbiofY8g7O1u-4" value="&lt;p&gt;&lt;/p&gt;&lt;div style=&quot;text-align: left&quot;&gt;E.g.&lt;/div&gt;&lt;div style=&quot;text-align: left&quot;&gt;id: &quot;&lt;span style=&quot;font-family: monospace , monospace&quot;&gt;123e4567-e89b-12d3-a456-426614174000&quot;&lt;/span&gt;&lt;/div&gt;&lt;div style=&quot;text-align: left&quot;&gt;street: &quot;Towarowa&quot;&lt;/div&gt;&lt;div&gt;&lt;div&gt;&lt;div style=&quot;text-align: left&quot;&gt;streetNo: &quot;20A&quot;&lt;/div&gt;&lt;/div&gt;&lt;/div&gt;&lt;div style=&quot;text-align: left&quot;&gt;city: &quot;Krakow&quot;&lt;/div&gt;&lt;div style=&quot;text-align: left&quot;&gt;staircases: &quot;mieszkania 1 - 24&quot;&lt;/div&gt;" style="shape=note;size=20;whiteSpace=wrap;html=1;" vertex="1" parent="1">
          <mxGeometry x="390" y="10" width="330" height="100" as="geometry" />
        </mxCell>
        <mxCell id="P1GT1j-JjbiofY8g7O1u-6" value="InspectionTime" style="swimlane;childLayout=stackLayout;horizontal=1;startSize=30;horizontalStack=0;rounded=1;fontSize=14;fontStyle=0;strokeWidth=2;resizeParent=0;resizeLast=1;shadow=0;dashed=0;align=center;" vertex="1" parent="1">
          <mxGeometry x="400" y="170" width="160" height="120" as="geometry" />
        </mxCell>
        <mxCell id="P1GT1j-JjbiofY8g7O1u-7" value="+ id: uuid&#xa;+ date: Date&#xa;+ startFrom: DateTime&#xa;+ endTo: DateTime" style="align=left;strokeColor=none;fillColor=none;spacingLeft=4;fontSize=12;verticalAlign=top;resizable=0;rotatable=0;part=1;" vertex="1" parent="P1GT1j-JjbiofY8g7O1u-6">
          <mxGeometry y="30" width="160" height="90" as="geometry" />
        </mxCell>
        <mxCell id="P1GT1j-JjbiofY8g7O1u-9" value="" style="edgeStyle=entityRelationEdgeStyle;fontSize=12;html=1;endArrow=ERoneToMany;exitX=1;exitY=0.5;exitDx=0;exitDy=0;" edge="1" parent="1" source="P1GT1j-JjbiofY8g7O1u-2" target="P1GT1j-JjbiofY8g7O1u-7">
          <mxGeometry width="100" height="100" relative="1" as="geometry">
            <mxPoint x="370" y="340" as="sourcePoint" />
            <mxPoint x="470" y="240" as="targetPoint" />
          </mxGeometry>
        </mxCell>
        <mxCell id="P1GT1j-JjbiofY8g7O1u-11" value="InspectionConfirmation" style="swimlane;childLayout=stackLayout;horizontal=1;startSize=30;horizontalStack=0;rounded=1;fontSize=14;fontStyle=0;strokeWidth=2;resizeParent=0;resizeLast=1;shadow=0;dashed=0;align=center;" vertex="1" parent="1">
          <mxGeometry x="400" y="320" width="170" height="120" as="geometry" />
        </mxCell>
        <mxCell id="P1GT1j-JjbiofY8g7O1u-12" value="+ id: uuid&#xa;+ answer: string&#xa;+ additionalNotes: string&#xa;+ createdAt" style="align=left;strokeColor=none;fillColor=none;spacingLeft=4;fontSize=12;verticalAlign=top;resizable=0;rotatable=0;part=1;" vertex="1" parent="P1GT1j-JjbiofY8g7O1u-11">
          <mxGeometry y="30" width="170" height="90" as="geometry" />
        </mxCell>
        <mxCell id="P1GT1j-JjbiofY8g7O1u-13" value="" style="edgeStyle=entityRelationEdgeStyle;fontSize=12;html=1;endArrow=ERoneToMany;exitX=0.75;exitY=1;exitDx=0;exitDy=0;" edge="1" parent="1" source="P1GT1j-JjbiofY8g7O1u-2" target="P1GT1j-JjbiofY8g7O1u-12">
          <mxGeometry width="100" height="100" relative="1" as="geometry">
            <mxPoint x="370" y="260" as="sourcePoint" />
            <mxPoint x="470" y="160" as="targetPoint" />
          </mxGeometry>
        </mxCell>
        <mxCell id="P1GT1j-JjbiofY8g7O1u-15" style="edgeStyle=orthogonalEdgeStyle;rounded=0;orthogonalLoop=1;jettySize=auto;html=1;" edge="1" parent="1" source="P1GT1j-JjbiofY8g7O1u-14" target="P1GT1j-JjbiofY8g7O1u-12">
          <mxGeometry relative="1" as="geometry" />
        </mxCell>
        <mxCell id="P1GT1j-JjbiofY8g7O1u-14" value="W zasadzie to na froncie damy te odpowiedzi, więc tutaj cokolwiek będzie można przechowywać w additionalNotes (np. nr telefonu) a z selecta do answer" style="shape=note;size=20;whiteSpace=wrap;html=1;" vertex="1" parent="1">
          <mxGeometry x="690" y="160" width="230" height="250" as="geometry" />
        </mxCell>
      </root>
    </mxGraphModel>
  </diagram>
</mxfile>
